<svg xmlns="http://www.w3.org/2000/svg" xmlns:xlink="http://www.w3.org/1999/xlink" width="500" zoomAndPan="magnify" viewBox="0 0 375 374.999991" height="500" preserveAspectRatio="xMidYMid meet" version="1.0"><defs><clipPath id="fea007258d"><path d="M 114.46875 112.5 L 231 112.5 L 231 262.5 L 114.46875 262.5 Z M 114.46875 112.5 " clip-rule="nonzero"/></clipPath><clipPath id="9868f1691a"><path d="M 139.398438 57.238281 L 200.148438 57.238281 L 200.148438 112.738281 L 139.398438 112.738281 Z M 139.398438 57.238281 " clip-rule="nonzero"/></clipPath></defs><rect x="-37.5" width="450" fill="#ffffff" y="-37.499999" height="449.999989" fill-opacity="1"/><rect x="-37.5" width="450" fill="#ffffff" y="-37.499999" height="449.999989" fill-opacity="1"/><g clip-path="url(#fea007258d)"><path fill="#ff7312" d="M 226.152344 262.429688 L 118.941406 262.429688 C 116.5 262.429688 114.515625 260.445312 114.515625 258.007812 L 114.515625 116.890625 C 114.515625 114.453125 116.5 112.46875 118.941406 112.46875 L 226.152344 112.46875 C 228.59375 112.46875 230.578125 114.453125 230.578125 116.890625 L 230.578125 180.773438 C 230.578125 181.675781 229.847656 182.410156 228.9375 182.410156 C 228.035156 182.410156 227.300781 181.675781 227.300781 180.773438 L 227.300781 116.890625 C 227.300781 116.269531 226.773438 115.746094 226.152344 115.746094 L 118.941406 115.742188 C 118.320312 115.742188 117.789062 116.269531 117.789062 116.890625 L 117.789062 258.007812 C 117.789062 258.628906 118.320312 259.15625 118.941406 259.15625 L 226.152344 259.15625 C 226.773438 259.15625 227.300781 258.628906 227.300781 258.007812 L 227.300781 215.117188 C 227.300781 214.214844 228.035156 213.480469 228.9375 213.480469 C 229.847656 213.480469 230.578125 214.214844 230.578125 215.117188 L 230.578125 258.007812 C 230.578125 260.445312 228.59375 262.429688 226.152344 262.429688 Z M 226.152344 262.429688 " fill-opacity="1" fill-rule="evenodd"/></g><path fill="#ff7312" d="M 203.878906 242.9375 C 203.59375 242.9375 203.3125 242.863281 203.058594 242.71875 C 202.546875 242.421875 202.230469 241.875 202.238281 241.285156 L 202.414062 223.8125 C 202.421875 222.90625 203.152344 222.179688 204.070312 222.191406 C 204.976562 222.199219 205.699219 222.9375 205.691406 223.84375 L 205.542969 238.414062 L 218.109375 231.003906 C 218.890625 230.542969 219.894531 230.804688 220.355469 231.582031 C 220.816406 232.359375 220.554688 233.363281 219.777344 233.824219 L 204.710938 242.710938 C 204.457031 242.859375 204.164062 242.9375 203.878906 242.9375 Z M 203.878906 242.9375 " fill-opacity="1" fill-rule="evenodd"/><path fill="#ff7312" d="M 206.289062 223.226562 L 218.34375 230.179688 L 250.957031 173.765625 L 238.90625 166.816406 Z M 218.941406 234.050781 C 218.664062 234.050781 218.382812 233.980469 218.121094 233.832031 L 203.234375 225.246094 C 202.449219 224.792969 202.175781 223.792969 202.632812 223.007812 L 236.882812 163.757812 C 237.335938 162.976562 238.335938 162.710938 239.121094 163.160156 L 254.015625 171.746094 C 254.390625 171.964844 254.664062 172.320312 254.777344 172.742188 C 254.890625 173.160156 254.832031 173.609375 254.613281 173.984375 L 220.363281 233.230469 C 220.058594 233.757812 219.507812 234.050781 218.941406 234.050781 Z M 218.941406 234.050781 " fill-opacity="1" fill-rule="evenodd"/><path fill="#ff7312" d="M 253.191406 174.800781 C 252.914062 174.800781 252.632812 174.730469 252.375 174.582031 C 251.589844 174.128906 251.320312 173.128906 251.773438 172.347656 L 256.054688 164.941406 C 256.992188 163.320312 256.433594 161.246094 254.8125 160.3125 L 248.640625 156.75 C 247.859375 156.300781 246.945312 156.183594 246.066406 156.417969 C 245.1875 156.652344 244.453125 157.210938 244 157.992188 L 239.722656 165.398438 C 239.269531 166.179688 238.265625 166.449219 237.484375 165.996094 C 236.699219 165.542969 236.429688 164.542969 236.882812 163.761719 L 241.164062 156.355469 C 242.050781 154.816406 243.492188 153.71875 245.21875 153.253906 C 246.941406 152.792969 248.738281 153.027344 250.277344 153.914062 L 256.453125 157.476562 C 259.636719 159.3125 260.734375 163.394531 258.894531 166.578125 L 254.613281 173.984375 C 254.308594 174.507812 253.757812 174.800781 253.191406 174.800781 Z M 253.191406 174.800781 " fill-opacity="1" fill-rule="evenodd"/><path fill="#ff7312" d="M 250.046875 180.242188 C 249.769531 180.242188 249.484375 180.171875 249.230469 180.023438 L 234.339844 171.4375 C 233.550781 170.984375 233.285156 169.984375 233.738281 169.199219 C 234.191406 168.417969 235.191406 168.148438 235.976562 168.601562 L 250.871094 177.1875 C 251.652344 177.640625 251.921875 178.640625 251.464844 179.425781 C 251.164062 179.949219 250.613281 180.242188 250.046875 180.242188 Z M 250.046875 180.242188 " fill-opacity="1" fill-rule="evenodd"/><path fill="#ff7312" d="M 219.183594 216.457031 C 218.90625 216.457031 218.625 216.386719 218.367188 216.238281 C 217.582031 215.785156 217.316406 214.785156 217.765625 214 L 241.179688 173.496094 C 241.636719 172.710938 242.640625 172.441406 243.421875 172.894531 C 244.207031 173.347656 244.472656 174.347656 244.023438 175.132812 L 220.605469 215.636719 C 220.304688 216.164062 219.75 216.457031 219.183594 216.457031 Z M 219.183594 216.457031 " fill-opacity="1" fill-rule="evenodd"/><path fill="#ff7312" d="M 206.628906 135.238281 L 138.460938 135.238281 C 137.558594 135.238281 136.824219 134.503906 136.824219 133.601562 C 136.824219 132.695312 137.558594 131.960938 138.460938 131.960938 L 206.628906 131.960938 C 207.535156 131.960938 208.269531 132.695312 208.269531 133.601562 C 208.269531 134.503906 207.535156 135.238281 206.628906 135.238281 Z M 206.628906 135.238281 " fill-opacity="1" fill-rule="evenodd"/><path fill="#ff7312" d="M 206.628906 162.160156 L 138.460938 162.160156 C 137.558594 162.160156 136.824219 161.429688 136.824219 160.523438 C 136.824219 159.621094 137.558594 158.886719 138.460938 158.886719 L 206.628906 158.886719 C 207.535156 158.886719 208.269531 159.621094 208.269531 160.523438 C 208.269531 161.429688 207.535156 162.160156 206.628906 162.160156 Z M 206.628906 162.160156 " fill-opacity="1" fill-rule="evenodd"/><path fill="#ff7312" d="M 206.628906 189.085938 L 138.460938 189.085938 C 137.558594 189.085938 136.824219 188.355469 136.824219 187.449219 C 136.824219 186.546875 137.558594 185.8125 138.460938 185.8125 L 206.628906 185.8125 C 207.535156 185.8125 208.269531 186.546875 208.269531 187.449219 C 208.269531 188.355469 207.535156 189.085938 206.628906 189.085938 Z M 206.628906 189.085938 " fill-opacity="1" fill-rule="evenodd"/><path fill="#ff7312" d="M 192.863281 216.011719 L 138.464844 216.011719 C 137.558594 216.011719 136.824219 215.28125 136.824219 214.375 C 136.824219 213.472656 137.558594 212.738281 138.460938 212.738281 L 192.863281 212.738281 C 193.765625 212.738281 194.5 213.472656 194.5 214.375 C 194.5 215.277344 193.765625 216.011719 192.863281 216.011719 Z M 192.863281 216.011719 " fill-opacity="1" fill-rule="evenodd"/><path fill="#ff7312" d="M 197.820312 242.9375 L 138.464844 242.9375 C 137.558594 242.9375 136.824219 242.203125 136.824219 241.300781 C 136.824219 240.394531 137.558594 239.664062 138.460938 239.664062 L 197.820312 239.664062 C 198.726562 239.664062 199.457031 240.394531 199.457031 241.300781 C 199.460938 242.203125 198.722656 242.9375 197.820312 242.9375 Z M 197.820312 242.9375 " fill-opacity="1" fill-rule="evenodd"/><g clip-path="url(#9868f1691a)"><path fill="#ff9e01" d="M 184.238281 63.09375 L 171.222656 63.09375 L 171.222656 58.714844 C 171.222656 58.523438 171.183594 58.335938 171.109375 58.15625 C 171.039062 57.980469 170.933594 57.820312 170.796875 57.683594 C 170.660156 57.546875 170.503906 57.441406 170.328125 57.367188 C 170.152344 57.292969 169.964844 57.257812 169.773438 57.257812 C 169.582031 57.257812 169.398438 57.292969 169.222656 57.367188 C 169.042969 57.441406 168.886719 57.546875 168.753906 57.683594 C 168.617188 57.820312 168.511719 57.980469 168.4375 58.15625 C 168.363281 58.335938 168.328125 58.523438 168.328125 58.714844 L 168.328125 63.09375 L 155.308594 63.09375 C 154.835938 63.09375 154.367188 63.140625 153.898438 63.238281 C 153.433594 63.332031 152.984375 63.46875 152.542969 63.652344 C 152.105469 63.835938 151.6875 64.0625 151.292969 64.328125 C 150.898438 64.59375 150.535156 64.894531 150.199219 65.234375 C 149.863281 65.574219 149.5625 65.941406 149.300781 66.339844 C 149.035156 66.738281 148.8125 67.160156 148.628906 67.601562 C 148.449219 68.042969 148.3125 68.5 148.21875 68.96875 C 148.125 69.441406 148.078125 69.914062 148.078125 70.394531 L 148.078125 96.664062 C 148.078125 97.144531 148.125 97.621094 148.21875 98.089844 C 148.3125 98.558594 148.449219 99.015625 148.628906 99.457031 C 148.8125 99.898438 149.035156 100.320312 149.300781 100.71875 C 149.5625 101.117188 149.863281 101.484375 150.199219 101.824219 C 150.535156 102.164062 150.898438 102.464844 151.292969 102.730469 C 151.6875 102.996094 152.105469 103.222656 152.542969 103.40625 C 152.984375 103.589844 153.433594 103.730469 153.898438 103.824219 C 154.367188 103.917969 154.835938 103.964844 155.308594 103.964844 L 163.214844 103.964844 L 168.570312 112.070312 C 168.636719 112.171875 168.714844 112.261719 168.800781 112.34375 C 168.890625 112.421875 168.988281 112.492188 169.09375 112.546875 C 169.199219 112.605469 169.308594 112.648438 169.421875 112.675781 C 169.539062 112.707031 169.65625 112.722656 169.773438 112.722656 C 169.894531 112.722656 170.011719 112.707031 170.125 112.675781 C 170.242188 112.648438 170.351562 112.605469 170.457031 112.546875 C 170.5625 112.492188 170.660156 112.421875 170.746094 112.34375 C 170.835938 112.261719 170.914062 112.171875 170.976562 112.070312 L 176.335938 103.964844 L 184.238281 103.964844 C 184.714844 103.964844 185.183594 103.917969 185.648438 103.824219 C 186.113281 103.730469 186.566406 103.589844 187.003906 103.40625 C 187.445312 103.222656 187.859375 102.996094 188.253906 102.730469 C 188.648438 102.464844 189.015625 102.164062 189.351562 101.824219 C 189.6875 101.484375 189.988281 101.117188 190.25 100.71875 C 190.515625 100.320312 190.738281 99.898438 190.917969 99.457031 C 191.101562 99.015625 191.238281 98.558594 191.332031 98.089844 C 191.425781 97.621094 191.472656 97.144531 191.472656 96.664062 L 191.472656 70.394531 C 191.472656 69.914062 191.425781 69.441406 191.332031 68.96875 C 191.238281 68.5 191.101562 68.042969 190.917969 67.601562 C 190.738281 67.160156 190.515625 66.738281 190.25 66.339844 C 189.988281 65.941406 189.6875 65.574219 189.351562 65.234375 C 189.015625 64.894531 188.648438 64.59375 188.253906 64.328125 C 187.859375 64.0625 187.445312 63.835938 187.003906 63.652344 C 186.566406 63.46875 186.113281 63.332031 185.648438 63.238281 C 185.183594 63.140625 184.714844 63.09375 184.238281 63.09375 Z M 188.578125 96.664062 C 188.578125 96.953125 188.550781 97.238281 188.496094 97.519531 C 188.4375 97.800781 188.355469 98.074219 188.246094 98.339844 C 188.136719 98.605469 188.003906 98.859375 187.84375 99.097656 C 187.6875 99.335938 187.507812 99.558594 187.304688 99.761719 C 187.105469 99.964844 186.886719 100.144531 186.648438 100.304688 C 186.410156 100.464844 186.160156 100.601562 185.898438 100.710938 C 185.636719 100.820312 185.363281 100.902344 185.085938 100.960938 C 184.804688 101.015625 184.523438 101.042969 184.238281 101.042969 L 175.558594 101.042969 C 175.042969 101.046875 174.644531 101.261719 174.355469 101.695312 L 169.773438 108.628906 L 165.191406 101.695312 C 164.90625 101.261719 164.503906 101.046875 163.988281 101.042969 L 155.308594 101.042969 C 155.027344 101.042969 154.742188 101.015625 154.464844 100.960938 C 154.183594 100.902344 153.914062 100.820312 153.652344 100.710938 C 153.386719 100.601562 153.136719 100.464844 152.902344 100.304688 C 152.664062 100.144531 152.445312 99.964844 152.242188 99.761719 C 152.042969 99.558594 151.863281 99.335938 151.703125 99.097656 C 151.546875 98.859375 151.410156 98.605469 151.304688 98.339844 C 151.195312 98.074219 151.109375 97.800781 151.054688 97.519531 C 151 97.238281 150.972656 96.953125 150.972656 96.664062 L 150.972656 92.285156 L 188.578125 92.285156 Z M 188.578125 89.367188 L 150.972656 89.367188 L 150.972656 70.394531 C 150.972656 70.105469 151 69.820312 151.054688 69.539062 C 151.109375 69.257812 151.195312 68.984375 151.304688 68.71875 C 151.410156 68.453125 151.546875 68.199219 151.703125 67.960938 C 151.863281 67.722656 152.042969 67.5 152.242188 67.296875 C 152.445312 67.09375 152.664062 66.914062 152.902344 66.753906 C 153.136719 66.59375 153.386719 66.457031 153.652344 66.347656 C 153.914062 66.238281 154.183594 66.15625 154.464844 66.097656 C 154.742188 66.042969 155.027344 66.015625 155.308594 66.015625 L 184.238281 66.015625 C 184.523438 66.015625 184.804688 66.042969 185.085938 66.097656 C 185.363281 66.15625 185.636719 66.238281 185.898438 66.347656 C 186.160156 66.457031 186.410156 66.59375 186.648438 66.753906 C 186.886719 66.914062 187.105469 67.09375 187.304688 67.296875 C 187.507812 67.5 187.6875 67.722656 187.84375 67.960938 C 188.003906 68.199219 188.136719 68.453125 188.246094 68.71875 C 188.355469 68.984375 188.4375 69.257812 188.496094 69.539062 C 188.550781 69.820312 188.578125 70.105469 188.578125 70.394531 Z M 163.988281 79.152344 C 163.988281 79.539062 163.914062 79.910156 163.769531 80.269531 C 163.621094 80.625 163.414062 80.941406 163.140625 81.214844 C 162.871094 81.488281 162.558594 81.699219 162.203125 81.847656 C 161.847656 81.996094 161.480469 82.070312 161.097656 82.070312 C 160.710938 82.070312 160.34375 81.996094 159.988281 81.847656 C 159.632812 81.699219 159.320312 81.488281 159.050781 81.214844 C 158.78125 80.941406 158.570312 80.625 158.421875 80.269531 C 158.277344 79.910156 158.203125 79.539062 158.203125 79.152344 C 158.203125 78.761719 158.277344 78.390625 158.421875 78.035156 C 158.570312 77.675781 158.78125 77.359375 159.050781 77.085938 C 159.320312 76.8125 159.632812 76.601562 159.988281 76.453125 C 160.34375 76.304688 160.710938 76.230469 161.097656 76.230469 C 161.480469 76.230469 161.847656 76.304688 162.203125 76.453125 C 162.558594 76.601562 162.871094 76.8125 163.140625 77.085938 C 163.414062 77.359375 163.621094 77.675781 163.769531 78.035156 C 163.914062 78.390625 163.988281 78.761719 163.988281 79.152344 Z M 181.347656 79.152344 C 181.347656 79.539062 181.273438 79.910156 181.125 80.269531 C 180.980469 80.625 180.769531 80.941406 180.5 81.214844 C 180.226562 81.488281 179.914062 81.699219 179.558594 81.847656 C 179.207031 81.996094 178.835938 82.070312 178.453125 82.070312 C 178.070312 82.070312 177.699219 81.996094 177.347656 81.847656 C 176.992188 81.699219 176.679688 81.488281 176.40625 81.214844 C 176.136719 80.941406 175.925781 80.625 175.78125 80.269531 C 175.632812 79.910156 175.558594 79.539062 175.558594 79.152344 C 175.558594 78.761719 175.632812 78.390625 175.78125 78.035156 C 175.925781 77.675781 176.136719 77.359375 176.40625 77.085938 C 176.679688 76.8125 176.992188 76.601562 177.347656 76.453125 C 177.699219 76.304688 178.070312 76.230469 178.453125 76.230469 C 178.835938 76.230469 179.207031 76.304688 179.558594 76.453125 C 179.914062 76.601562 180.226562 76.8125 180.5 77.085938 C 180.769531 77.359375 180.980469 77.675781 181.125 78.035156 C 181.273438 78.390625 181.347656 78.761719 181.347656 79.152344 Z M 142.292969 73.3125 L 142.292969 84.988281 C 142.292969 85.183594 142.257812 85.367188 142.183594 85.546875 C 142.109375 85.726562 142.003906 85.882812 141.867188 86.019531 C 141.734375 86.15625 141.578125 86.261719 141.398438 86.335938 C 141.222656 86.410156 141.039062 86.449219 140.847656 86.449219 C 140.65625 86.449219 140.46875 86.410156 140.292969 86.335938 C 140.117188 86.261719 139.960938 86.15625 139.824219 86.019531 C 139.6875 85.882812 139.582031 85.726562 139.511719 85.546875 C 139.4375 85.367188 139.398438 85.183594 139.398438 84.988281 L 139.398438 73.3125 C 139.398438 73.117188 139.4375 72.933594 139.511719 72.753906 C 139.582031 72.574219 139.6875 72.417969 139.824219 72.28125 C 139.960938 72.144531 140.117188 72.039062 140.292969 71.964844 C 140.46875 71.890625 140.65625 71.851562 140.847656 71.851562 C 141.039062 71.851562 141.222656 71.890625 141.398438 71.964844 C 141.578125 72.039062 141.734375 72.144531 141.867188 72.28125 C 142.003906 72.417969 142.109375 72.574219 142.183594 72.753906 C 142.257812 72.933594 142.292969 73.117188 142.292969 73.3125 Z M 200.148438 73.3125 L 200.148438 84.988281 C 200.148438 85.183594 200.113281 85.367188 200.039062 85.546875 C 199.964844 85.726562 199.863281 85.882812 199.726562 86.019531 C 199.589844 86.15625 199.433594 86.261719 199.257812 86.335938 C 199.078125 86.410156 198.894531 86.449219 198.703125 86.449219 C 198.511719 86.449219 198.328125 86.410156 198.148438 86.335938 C 197.972656 86.261719 197.816406 86.15625 197.679688 86.019531 C 197.546875 85.882812 197.441406 85.726562 197.367188 85.546875 C 197.292969 85.367188 197.257812 85.183594 197.257812 84.988281 L 197.257812 73.3125 C 197.257812 73.117188 197.292969 72.933594 197.367188 72.753906 C 197.441406 72.574219 197.546875 72.417969 197.679688 72.28125 C 197.816406 72.144531 197.972656 72.039062 198.148438 71.964844 C 198.328125 71.890625 198.511719 71.851562 198.703125 71.851562 C 198.894531 71.851562 199.078125 71.890625 199.257812 71.964844 C 199.433594 72.039062 199.589844 72.144531 199.726562 72.28125 C 199.863281 72.417969 199.964844 72.574219 200.039062 72.753906 C 200.113281 72.933594 200.148438 73.117188 200.148438 73.3125 Z M 200.148438 73.3125 " fill-opacity="1" fill-rule="nonzero"/></g></svg>